<?xml version="1.0" standalone="no"?>
<!DOCTYPE svg PUBLIC "-//W3C//DTD SVG 20010904//EN"
 "http://www.w3.org/TR/2001/REC-SVG-20010904/DTD/svg10.dtd">
<svg version="1.0" xmlns="http://www.w3.org/2000/svg"
 width="400.000000pt" height="400.000000pt" viewBox="0 0 400.000000 400.000000"
 preserveAspectRatio="xMidYMid meet">
<metadata>
Created by potrace 1.11, written by Peter Selinger 2001-2013
</metadata>
<g transform="translate(0.000000,400.000000) scale(0.100000,-0.100000)"
fill="#000000" stroke="none">
<path d="M3183 3425 c-91 -14 -108 -19 -283 -82 -212 -75 -311 -131 -515 -287
-99 -76 -179 -156 -233 -231 -58 -82 -81 -109 -88 -102 -4 3 -1 21 5 39 10 29
9 34 -9 48 -16 12 -19 23 -15 55 l5 40 -10 -40 c-15 -55 -45 -74 -53 -32 -2
12 -3 8 -2 -8 2 -17 -3 -39 -11 -50 -18 -25 -18 -49 1 -65 15 -13 21 -40 8
-39 -5 0 -33 30 -63 67 -101 123 -318 336 -377 372 -32 19 -74 46 -93 60 -95
72 -255 130 -488 180 -218 46 -321 39 -438 -31 -70 -42 -114 -105 -114 -163 0
-23 7 -73 16 -111 8 -39 22 -101 30 -138 8 -38 19 -80 25 -94 25 -67 4 -234
-69 -543 -56 -235 -58 -314 -13 -415 41 -90 105 -133 234 -155 56 -10 79 -9
135 4 37 8 87 18 112 22 l45 6 -31 -33 c-101 -112 -230 -293 -254 -356 -43
-116 -52 -246 -25 -378 27 -132 54 -176 157 -259 50 -41 71 -50 175 -77 151
-39 286 -48 364 -26 63 19 200 104 242 151 15 17 54 72 87 121 32 50 73 110
91 135 61 84 209 432 209 490 0 41 30 141 41 134 4 -2 11 -46 15 -97 7 -80 9
-87 15 -52 4 22 10 84 14 138 4 53 11 97 15 97 9 0 70 -188 70 -217 0 -28 78
-243 107 -293 14 -25 46 -83 70 -129 66 -125 139 -227 219 -307 80 -79 99 -89
257 -145 186 -65 289 -71 447 -25 25 8 65 19 88 26 95 25 164 125 204 289 18
78 19 96 9 198 -6 61 -17 128 -25 150 -69 188 -174 329 -352 471 -19 16 -23
21 -10 17 11 -3 102 -11 202 -17 174 -11 185 -11 219 8 83 44 118 116 130 274
6 78 4 92 -24 170 -51 145 -81 392 -63 523 16 119 32 296 39 417 5 89 3 111
-12 140 -25 50 -69 87 -150 125 -85 41 -164 49 -282 30z m112 -109 c58 -28 98
-64 121 -108 23 -45 14 -164 -19 -249 -14 -35 -37 -104 -52 -152 -26 -84 -27
-97 -22 -240 3 -97 14 -206 31 -302 29 -170 34 -320 12 -363 -26 -50 -72 -85
-123 -93 -91 -15 -254 -10 -338 10 -102 25 -291 105 -420 178 -185 105 -204
113 -254 112 l-46 -2 51 -6 c27 -3 63 -15 80 -26 195 -129 548 -277 736 -309
30 -6 55 -24 123 -94 88 -89 113 -131 172 -281 34 -88 34 -192 -1 -307 -58
-195 -115 -243 -347 -294 -111 -25 -350 22 -479 93 -30 16 -79 53 -108 81 -64
61 -163 204 -196 284 -34 82 -76 208 -76 228 0 35 -63 220 -82 241 -19 20 -19
27 -9 90 6 37 13 160 16 273 2 113 8 285 14 384 6 106 6 188 1 202 -8 20 -1
33 48 91 32 38 80 97 108 132 27 35 74 81 104 102 30 22 91 65 136 97 167 119
382 212 527 228 29 3 70 9 92 14 80 16 147 11 200 -14z m-2264 -36 c169 -31
328 -81 379 -118 25 -18 86 -59 135 -91 89 -58 223 -185 364 -346 56 -63 61
-73 54 -100 -5 -16 -8 -55 -7 -85 0 -30 4 -228 7 -440 4 -212 7 -397 7 -413 1
-15 -11 -63 -25 -108 -14 -44 -25 -90 -25 -103 0 -23 -71 -166 -143 -291 -46
-79 -145 -209 -227 -298 -111 -121 -226 -146 -429 -93 -104 27 -186 71 -238
127 -30 34 -94 153 -104 197 -23 96 -29 221 -14 284 24 102 80 225 129 283 38
44 53 54 89 60 86 14 274 64 339 91 38 15 67 29 65 30 -4 4 -139 -22 -203 -39
-114 -31 -428 -54 -491 -37 -48 14 -114 74 -125 115 -11 42 35 264 78 379 17
45 64 346 64 411 0 24 -18 102 -41 172 -53 165 -59 223 -29 285 28 61 87 114
142 128 24 6 48 13 53 15 25 9 100 3 196 -15z"/>
<path d="M2905 2980 c-13 -5 -14 -9 -5 -9 8 0 24 4 35 9 13 5 14 9 5 9 -8 0
-24 -4 -35 -9z"/>
<path d="M2850 2960 c-8 -5 -10 -10 -5 -10 6 0 17 5 25 10 8 5 11 10 5 10 -5
0 -17 -5 -25 -10z"/>
<path d="M2790 2935 c-14 -8 -20 -14 -15 -14 6 0 21 6 35 14 14 8 21 14 15 14
-5 0 -21 -6 -35 -14z"/>
<path d="M2670 2877 c-19 -11 -79 -55 -134 -96 -54 -42 -124 -95 -155 -118
-86 -65 -102 -78 -66 -57 17 9 86 61 155 114 69 54 154 116 190 139 66 41 74
57 10 18z"/>
<path d="M2653 2513 c9 -2 25 -2 35 0 9 3 1 5 -18 5 -19 0 -27 -2 -17 -5z"/>
<path d="M2818 2513 c6 -2 18 -2 25 0 6 3 1 5 -13 5 -14 0 -19 -2 -12 -5z"/>
<path d="M2568 2503 c6 -2 18 -2 25 0 6 3 1 5 -13 5 -14 0 -19 -2 -12 -5z"/>
<path d="M2508 2493 c7 -3 16 -2 19 1 4 3 -2 6 -13 5 -11 0 -14 -3 -6 -6z"/>
<path d="M2388 2473 c7 -3 16 -2 19 1 4 3 -2 6 -13 5 -11 0 -14 -3 -6 -6z"/>
<path d="M2320 2460 c-13 -9 -13 -10 0 -10 8 0 22 5 30 10 13 9 13 10 0 10 -8
0 -22 -5 -30 -10z"/>
<path d="M1410 2935 c14 -8 30 -14 35 -14 6 0 -1 6 -15 14 -14 8 -29 14 -35
14 -5 0 1 -6 15 -14z"/>
<path d="M1460 2916 c0 -3 9 -10 20 -16 11 -6 20 -8 20 -6 0 3 -9 10 -20 16
-11 6 -20 8 -20 6z"/>
<path d="M1540 2866 c0 -2 8 -10 18 -17 15 -13 16 -12 3 4 -13 16 -21 21 -21
13z"/>
<path d="M1610 2816 c0 -2 8 -10 18 -17 15 -13 16 -12 3 4 -13 16 -21 21 -21
13z"/>
<path d="M1696 2740 c27 -30 61 -71 76 -90 15 -19 27 -29 28 -21 0 7 -35 48
-77 90 -49 48 -59 56 -27 21z"/>
<path d="M1302 2651 c-8 -4 21 -6 65 -4 105 6 115 11 23 12 -41 0 -81 -3 -88
-8z"/>
<path d="M1478 2643 c6 -2 18 -2 25 0 6 3 1 5 -13 5 -14 0 -19 -2 -12 -5z"/>
<path d="M1550 2625 c46 -18 64 -17 25 0 -16 8 -37 14 -45 14 -8 0 1 -7 20
-14z"/>
<path d="M1680 2569 c30 -17 65 -41 78 -52 12 -11 22 -16 22 -11 0 13 -125 94
-145 94 -5 0 15 -14 45 -31z"/>
<path d="M1806 2160 c-31 -22 -89 -68 -129 -103 -40 -34 -85 -73 -102 -86
l-30 -23 30 17 c28 17 124 93 190 150 17 15 49 38 73 52 23 14 42 27 42 29 0
11 -22 0 -74 -36z"/>
<path d="M1458 1909 c-21 -11 -38 -22 -38 -24 0 -3 18 4 40 15 22 11 40 23 40
25 0 7 0 7 -42 -16z"/>
<path d="M1379 1683 c-13 -16 -12 -17 4 -4 9 7 17 15 17 17 0 8 -8 3 -21 -13z"/>
<path d="M1679 1664 c-5 -15 -8 -29 -5 -31 2 -2 8 10 14 26 13 38 5 41 -9 5z"/>
<path d="M2061 2964 c0 -11 3 -14 6 -6 3 7 2 16 -1 19 -3 4 -6 -2 -5 -13z"/>
<path d="M2051 2924 c0 -11 3 -14 6 -6 3 7 2 16 -1 19 -3 4 -6 -2 -5 -13z"/>
</g>
</svg>
